# xmcd
#
# Track frame offsets: 
#        150
#        23990
#        41927
#        58798
#        88341
#        115458
#        128935
#        139426
#        162056
#        178671
#        191356
#        207470
#        225606
#        243571
#        262062
#
# Disc length: 3654 seconds
#
# Revision: 1
# Processed by: cddbd v1.5.2PL0 Copyright (c) Steve Scherf et al.
# Submitted via: ExactAudioCopy v1.2
#
DISCID=e80e440f
DTITLE=Oscar Peterson II - Connoisseur Jazz Cuts - CD 4 of 20
DYEAR=2012
DGENRE=Jazz
TTITLE0=Pennies from Heaven
TTITLE1=Sunday
TTITLE2=You Turned the Tables on Me
TTITLE3=Flic
TTITLE4=Date with Oscar
TTITLE5=Mic's Jump
TTITLE6=How Deep Is the Ocean
TTITLE7=Exactly like you
TTITLE8=Lush Life
TTITLE9=Autumn in New York
TTITLE10=I'll never Be the Same
TTITLE11=Blue Moon
TTITLE12=You Took Advantage of Me
TTITLE13=I Can't Give You Anything but Love
TTITLE14=What's New
EXTD=YEAR: 2012
EXTT0=
EXTT1=
EXTT2=
EXTT3=
EXTT4=
EXTT5=
EXTT6=
EXTT7=
EXTT8=
EXTT9=
EXTT10=
EXTT11=
EXTT12=
EXTT13=
EXTT14=
PLAYORDER=
